<mxfile host="65bd71144e">
    <diagram id="E41IXRZdUjbz6F4WMIkR" name="Página-1">
        <mxGraphModel dx="1037" dy="745" grid="0" gridSize="10" guides="1" tooltips="1" connect="1" arrows="1" fold="1" page="1" pageScale="1" pageWidth="827" pageHeight="1169" background="#000000" math="0" shadow="0">
            <root>
                <mxCell id="0"/>
                <mxCell id="1" parent="0"/>
                <mxCell id="30" value="" style="edgeStyle=none;html=1;fontSize=20;" edge="1" parent="1" target="29">
                    <mxGeometry relative="1" as="geometry">
                        <mxPoint x="414" y="102" as="sourcePoint"/>
                    </mxGeometry>
                </mxCell>
                <mxCell id="28" value="Usuário" style="text;html=1;resizable=0;autosize=1;align=center;verticalAlign=middle;points=[];rounded=0;fontSize=15;" vertex="1" parent="1">
                    <mxGeometry x="383" y="74" width="62" height="22" as="geometry"/>
                </mxCell>
                <mxCell id="49" style="edgeStyle=elbowEdgeStyle;html=1;entryX=0.008;entryY=0.25;entryDx=0;entryDy=0;entryPerimeter=0;fontSize=20;" edge="1" parent="1" source="31" target="39">
                    <mxGeometry relative="1" as="geometry"/>
                </mxCell>
                <mxCell id="50" style="edgeStyle=elbowEdgeStyle;html=1;entryX=1.023;entryY=0.714;entryDx=0;entryDy=0;entryPerimeter=0;fontSize=20;" edge="1" parent="1" source="31" target="41">
                    <mxGeometry relative="1" as="geometry"/>
                </mxCell>
                <mxCell id="81" style="edgeStyle=elbowEdgeStyle;html=1;entryX=0.5;entryY=0;entryDx=0;entryDy=0;entryPerimeter=0;fontSize=16;" edge="1" parent="1" source="38" target="71">
                    <mxGeometry relative="1" as="geometry"/>
                </mxCell>
                <mxCell id="82" style="edgeStyle=elbowEdgeStyle;html=1;fontSize=16;" edge="1" parent="1" source="38" target="68">
                    <mxGeometry relative="1" as="geometry"/>
                </mxCell>
                <mxCell id="180" style="edgeStyle=elbowEdgeStyle;html=1;entryX=1;entryY=0.5;entryDx=0;entryDy=0;fontSize=12;" edge="1" parent="1" source="38" target="179">
                    <mxGeometry relative="1" as="geometry"/>
                </mxCell>
                <mxCell id="186" style="edgeStyle=elbowEdgeStyle;html=1;entryX=1;entryY=0.5;entryDx=0;entryDy=0;fontSize=12;" edge="1" parent="1" source="38" target="178">
                    <mxGeometry relative="1" as="geometry"/>
                </mxCell>
                <mxCell id="38" value="" style="shape=hexagon;perimeter=hexagonPerimeter2;whiteSpace=wrap;html=1;fixedSize=1;fontSize=20;strokeWidth=3;fillColor=#d80073;fontColor=#ffffff;strokeColor=#FFFFFF;" vertex="1" parent="1">
                    <mxGeometry x="203.5" y="250" width="177" height="80" as="geometry"/>
                </mxCell>
                <mxCell id="39" value="Condomínio" style="text;html=1;resizable=0;autosize=1;align=center;verticalAlign=middle;points=[];rounded=0;fontSize=20;" vertex="1" parent="1">
                    <mxGeometry x="233" y="276" width="118" height="28" as="geometry"/>
                </mxCell>
                <mxCell id="83" style="edgeStyle=elbowEdgeStyle;html=1;fontSize=16;" edge="1" parent="1" source="40" target="73">
                    <mxGeometry relative="1" as="geometry"/>
                </mxCell>
                <mxCell id="84" style="edgeStyle=elbowEdgeStyle;html=1;fontSize=16;" edge="1" parent="1" source="40" target="75">
                    <mxGeometry relative="1" as="geometry"/>
                </mxCell>
                <mxCell id="184" style="edgeStyle=elbowEdgeStyle;html=1;entryX=0;entryY=0.5;entryDx=0;entryDy=0;fontSize=12;" edge="1" parent="1" source="40" target="183">
                    <mxGeometry relative="1" as="geometry"/>
                </mxCell>
                <mxCell id="185" style="edgeStyle=elbowEdgeStyle;html=1;entryX=0;entryY=0.5;entryDx=0;entryDy=0;fontSize=12;" edge="1" parent="1" source="40" target="182">
                    <mxGeometry relative="1" as="geometry"/>
                </mxCell>
                <mxCell id="40" value="" style="shape=hexagon;perimeter=hexagonPerimeter2;whiteSpace=wrap;html=1;fixedSize=1;fontSize=20;strokeWidth=3;fillColor=#d80073;fontColor=#ffffff;strokeColor=#FFFFFF;" vertex="1" parent="1">
                    <mxGeometry x="451.5" y="247" width="177" height="80" as="geometry"/>
                </mxCell>
                <mxCell id="41" value="Condomínio" style="text;html=1;resizable=0;autosize=1;align=center;verticalAlign=middle;points=[];rounded=0;fontSize=20;" vertex="1" parent="1">
                    <mxGeometry x="481" y="273" width="118" height="28" as="geometry"/>
                </mxCell>
                <mxCell id="29" value="" style="whiteSpace=wrap;html=1;fontSize=20;rounded=0;strokeWidth=3;fillColor=#76608a;strokeColor=#FFFFFF;fontColor=#ffffff;" vertex="1" parent="1">
                    <mxGeometry x="354" y="157" width="120" height="60" as="geometry"/>
                </mxCell>
                <mxCell id="31" value="Gerente" style="text;html=1;resizable=0;autosize=1;align=center;verticalAlign=middle;points=[];rounded=0;fontSize=20;" vertex="1" parent="1">
                    <mxGeometry x="375" y="175" width="82" height="28" as="geometry"/>
                </mxCell>
                <mxCell id="166" style="edgeStyle=elbowEdgeStyle;html=1;fontSize=12;" edge="1" parent="1" source="68" target="101">
                    <mxGeometry relative="1" as="geometry"/>
                </mxCell>
                <mxCell id="68" value="" style="shape=cylinder3;whiteSpace=wrap;html=1;boundedLbl=1;backgroundOutline=1;size=15;fontSize=17;strokeWidth=3;fillColor=#6d8764;strokeColor=#FFFFFF;fontColor=#ffffff;" vertex="1" parent="1">
                    <mxGeometry x="180.5" y="390" width="76" height="113" as="geometry"/>
                </mxCell>
                <mxCell id="69" value="Bloco" style="text;html=1;resizable=0;autosize=1;align=center;verticalAlign=middle;points=[];rounded=0;fontSize=16;" vertex="1" parent="1">
                    <mxGeometry x="193.5" y="446" width="50" height="23" as="geometry"/>
                </mxCell>
                <mxCell id="167" style="edgeStyle=elbowEdgeStyle;html=1;entryX=0.5;entryY=0;entryDx=0;entryDy=0;fontSize=12;" edge="1" parent="1" source="71" target="127">
                    <mxGeometry relative="1" as="geometry"/>
                </mxCell>
                <mxCell id="71" value="" style="shape=cylinder3;whiteSpace=wrap;html=1;boundedLbl=1;backgroundOutline=1;size=15;fontSize=17;strokeWidth=3;fillColor=#6d8764;strokeColor=#FFFFFF;fontColor=#ffffff;" vertex="1" parent="1">
                    <mxGeometry x="304.5" y="390" width="76" height="113" as="geometry"/>
                </mxCell>
                <mxCell id="72" value="Bloco" style="text;html=1;resizable=0;autosize=1;align=center;verticalAlign=middle;points=[];rounded=0;fontSize=16;" vertex="1" parent="1">
                    <mxGeometry x="317.5" y="446" width="50" height="23" as="geometry"/>
                </mxCell>
                <mxCell id="168" style="edgeStyle=elbowEdgeStyle;html=1;entryX=0.5;entryY=0;entryDx=0;entryDy=0;fontSize=12;" edge="1" parent="1" source="73" target="140">
                    <mxGeometry relative="1" as="geometry"/>
                </mxCell>
                <mxCell id="73" value="" style="shape=cylinder3;whiteSpace=wrap;html=1;boundedLbl=1;backgroundOutline=1;size=15;fontSize=17;strokeWidth=3;fillColor=#6d8764;strokeColor=#FFFFFF;fontColor=#ffffff;" vertex="1" parent="1">
                    <mxGeometry x="451.5" y="390" width="76" height="113" as="geometry"/>
                </mxCell>
                <mxCell id="74" value="Bloco" style="text;html=1;resizable=0;autosize=1;align=center;verticalAlign=middle;points=[];rounded=0;fontSize=16;" vertex="1" parent="1">
                    <mxGeometry x="464.5" y="446" width="50" height="23" as="geometry"/>
                </mxCell>
                <mxCell id="169" style="edgeStyle=elbowEdgeStyle;html=1;entryX=0.5;entryY=0;entryDx=0;entryDy=0;fontSize=12;" edge="1" parent="1" source="75" target="153">
                    <mxGeometry relative="1" as="geometry"/>
                </mxCell>
                <mxCell id="75" value="" style="shape=cylinder3;whiteSpace=wrap;html=1;boundedLbl=1;backgroundOutline=1;size=15;fontSize=17;strokeWidth=3;fillColor=#6d8764;strokeColor=#FFFFFF;fontColor=#ffffff;" vertex="1" parent="1">
                    <mxGeometry x="575.5" y="390" width="76" height="113" as="geometry"/>
                </mxCell>
                <mxCell id="76" value="Bloco" style="text;html=1;resizable=0;autosize=1;align=center;verticalAlign=middle;points=[];rounded=0;fontSize=16;" vertex="1" parent="1">
                    <mxGeometry x="588.5" y="446" width="50" height="23" as="geometry"/>
                </mxCell>
                <mxCell id="243" style="edgeStyle=elbowEdgeStyle;html=1;fontSize=14;fontColor=#000000;" edge="1" parent="1" source="101">
                    <mxGeometry relative="1" as="geometry">
                        <mxPoint x="219" y="689" as="targetPoint"/>
                    </mxGeometry>
                </mxCell>
                <mxCell id="101" value="Apartamentos" style="shape=table;startSize=30;container=1;collapsible=0;childLayout=tableLayout;fontStyle=1;align=center;pointerEvents=1;fontSize=12;strokeWidth=2;fillColor=default;gradientColor=none;strokeColor=#FF9933;" vertex="1" parent="1">
                    <mxGeometry x="171.5" y="564" width="94" height="87" as="geometry"/>
                </mxCell>
                <mxCell id="102" value="" style="shape=partialRectangle;html=1;whiteSpace=wrap;collapsible=0;dropTarget=0;pointerEvents=0;fillColor=none;top=0;left=0;bottom=0;right=0;points=[[0,0.5],[1,0.5]];portConstraint=eastwest;fontSize=12;strokeWidth=2;" vertex="1" parent="101">
                    <mxGeometry y="30" width="94" height="19" as="geometry"/>
                </mxCell>
                <mxCell id="103" value="" style="shape=partialRectangle;html=1;whiteSpace=wrap;connectable=0;fillColor=none;top=0;left=0;bottom=0;right=0;overflow=hidden;pointerEvents=1;fontSize=12;strokeWidth=2;" vertex="1" parent="102">
                    <mxGeometry width="32" height="19" as="geometry">
                        <mxRectangle width="32" height="19" as="alternateBounds"/>
                    </mxGeometry>
                </mxCell>
                <mxCell id="104" value="" style="shape=partialRectangle;html=1;whiteSpace=wrap;connectable=0;fillColor=none;top=0;left=0;bottom=0;right=0;overflow=hidden;pointerEvents=1;fontSize=12;strokeWidth=2;" vertex="1" parent="102">
                    <mxGeometry x="32" width="30" height="19" as="geometry">
                        <mxRectangle width="30" height="19" as="alternateBounds"/>
                    </mxGeometry>
                </mxCell>
                <mxCell id="105" value="" style="shape=partialRectangle;html=1;whiteSpace=wrap;connectable=0;fillColor=none;top=0;left=0;bottom=0;right=0;overflow=hidden;pointerEvents=1;fontSize=12;strokeWidth=2;" vertex="1" parent="102">
                    <mxGeometry x="62" width="32" height="19" as="geometry">
                        <mxRectangle width="32" height="19" as="alternateBounds"/>
                    </mxGeometry>
                </mxCell>
                <mxCell id="106" value="" style="shape=partialRectangle;html=1;whiteSpace=wrap;collapsible=0;dropTarget=0;pointerEvents=0;fillColor=none;top=0;left=0;bottom=0;right=0;points=[[0,0.5],[1,0.5]];portConstraint=eastwest;fontSize=12;strokeWidth=2;" vertex="1" parent="101">
                    <mxGeometry y="49" width="94" height="19" as="geometry"/>
                </mxCell>
                <mxCell id="107" value="" style="shape=partialRectangle;html=1;whiteSpace=wrap;connectable=0;fillColor=none;top=0;left=0;bottom=0;right=0;overflow=hidden;pointerEvents=1;fontSize=12;strokeWidth=2;" vertex="1" parent="106">
                    <mxGeometry width="32" height="19" as="geometry">
                        <mxRectangle width="32" height="19" as="alternateBounds"/>
                    </mxGeometry>
                </mxCell>
                <mxCell id="108" value="" style="shape=partialRectangle;html=1;whiteSpace=wrap;connectable=0;fillColor=none;top=0;left=0;bottom=0;right=0;overflow=hidden;pointerEvents=1;fontSize=12;strokeWidth=2;" vertex="1" parent="106">
                    <mxGeometry x="32" width="30" height="19" as="geometry">
                        <mxRectangle width="30" height="19" as="alternateBounds"/>
                    </mxGeometry>
                </mxCell>
                <mxCell id="109" value="" style="shape=partialRectangle;html=1;whiteSpace=wrap;connectable=0;fillColor=none;top=0;left=0;bottom=0;right=0;overflow=hidden;pointerEvents=1;fontSize=12;strokeWidth=2;" vertex="1" parent="106">
                    <mxGeometry x="62" width="32" height="19" as="geometry">
                        <mxRectangle width="32" height="19" as="alternateBounds"/>
                    </mxGeometry>
                </mxCell>
                <mxCell id="110" value="" style="shape=partialRectangle;html=1;whiteSpace=wrap;collapsible=0;dropTarget=0;pointerEvents=0;fillColor=none;top=0;left=0;bottom=0;right=0;points=[[0,0.5],[1,0.5]];portConstraint=eastwest;fontSize=12;strokeWidth=2;" vertex="1" parent="101">
                    <mxGeometry y="68" width="94" height="19" as="geometry"/>
                </mxCell>
                <mxCell id="111" value="" style="shape=partialRectangle;html=1;whiteSpace=wrap;connectable=0;fillColor=none;top=0;left=0;bottom=0;right=0;overflow=hidden;pointerEvents=1;fontSize=12;strokeWidth=2;" vertex="1" parent="110">
                    <mxGeometry width="32" height="19" as="geometry">
                        <mxRectangle width="32" height="19" as="alternateBounds"/>
                    </mxGeometry>
                </mxCell>
                <mxCell id="112" value="" style="shape=partialRectangle;html=1;whiteSpace=wrap;connectable=0;fillColor=none;top=0;left=0;bottom=0;right=0;overflow=hidden;pointerEvents=1;fontSize=12;strokeWidth=2;strokeColor=#FF9933;" vertex="1" parent="110">
                    <mxGeometry x="32" width="30" height="19" as="geometry">
                        <mxRectangle width="30" height="19" as="alternateBounds"/>
                    </mxGeometry>
                </mxCell>
                <mxCell id="113" value="" style="shape=partialRectangle;html=1;whiteSpace=wrap;connectable=0;fillColor=none;top=0;left=0;bottom=0;right=0;overflow=hidden;pointerEvents=1;fontSize=12;strokeWidth=2;" vertex="1" parent="110">
                    <mxGeometry x="62" width="32" height="19" as="geometry">
                        <mxRectangle width="32" height="19" as="alternateBounds"/>
                    </mxGeometry>
                </mxCell>
                <mxCell id="244" style="edgeStyle=elbowEdgeStyle;html=1;fontSize=14;fontColor=#000000;" edge="1" parent="1" source="127">
                    <mxGeometry relative="1" as="geometry">
                        <mxPoint x="343" y="690" as="targetPoint"/>
                    </mxGeometry>
                </mxCell>
                <mxCell id="127" value="Apartamentos" style="shape=table;startSize=30;container=1;collapsible=0;childLayout=tableLayout;fontStyle=1;align=center;pointerEvents=1;fontSize=12;strokeWidth=2;fillColor=default;gradientColor=none;strokeColor=#FF9933;" vertex="1" parent="1">
                    <mxGeometry x="295.5" y="564" width="94" height="87" as="geometry"/>
                </mxCell>
                <mxCell id="128" value="" style="shape=partialRectangle;html=1;whiteSpace=wrap;collapsible=0;dropTarget=0;pointerEvents=0;fillColor=none;top=0;left=0;bottom=0;right=0;points=[[0,0.5],[1,0.5]];portConstraint=eastwest;fontSize=12;strokeWidth=2;" vertex="1" parent="127">
                    <mxGeometry y="30" width="94" height="19" as="geometry"/>
                </mxCell>
                <mxCell id="129" value="" style="shape=partialRectangle;html=1;whiteSpace=wrap;connectable=0;fillColor=none;top=0;left=0;bottom=0;right=0;overflow=hidden;pointerEvents=1;fontSize=12;strokeWidth=2;" vertex="1" parent="128">
                    <mxGeometry width="32" height="19" as="geometry">
                        <mxRectangle width="32" height="19" as="alternateBounds"/>
                    </mxGeometry>
                </mxCell>
                <mxCell id="130" value="" style="shape=partialRectangle;html=1;whiteSpace=wrap;connectable=0;fillColor=none;top=0;left=0;bottom=0;right=0;overflow=hidden;pointerEvents=1;fontSize=12;strokeWidth=2;" vertex="1" parent="128">
                    <mxGeometry x="32" width="30" height="19" as="geometry">
                        <mxRectangle width="30" height="19" as="alternateBounds"/>
                    </mxGeometry>
                </mxCell>
                <mxCell id="131" value="" style="shape=partialRectangle;html=1;whiteSpace=wrap;connectable=0;fillColor=none;top=0;left=0;bottom=0;right=0;overflow=hidden;pointerEvents=1;fontSize=12;strokeWidth=2;" vertex="1" parent="128">
                    <mxGeometry x="62" width="32" height="19" as="geometry">
                        <mxRectangle width="32" height="19" as="alternateBounds"/>
                    </mxGeometry>
                </mxCell>
                <mxCell id="132" value="" style="shape=partialRectangle;html=1;whiteSpace=wrap;collapsible=0;dropTarget=0;pointerEvents=0;fillColor=none;top=0;left=0;bottom=0;right=0;points=[[0,0.5],[1,0.5]];portConstraint=eastwest;fontSize=12;strokeWidth=2;" vertex="1" parent="127">
                    <mxGeometry y="49" width="94" height="19" as="geometry"/>
                </mxCell>
                <mxCell id="133" value="" style="shape=partialRectangle;html=1;whiteSpace=wrap;connectable=0;fillColor=none;top=0;left=0;bottom=0;right=0;overflow=hidden;pointerEvents=1;fontSize=12;strokeWidth=2;" vertex="1" parent="132">
                    <mxGeometry width="32" height="19" as="geometry">
                        <mxRectangle width="32" height="19" as="alternateBounds"/>
                    </mxGeometry>
                </mxCell>
                <mxCell id="134" value="" style="shape=partialRectangle;html=1;whiteSpace=wrap;connectable=0;fillColor=none;top=0;left=0;bottom=0;right=0;overflow=hidden;pointerEvents=1;fontSize=12;strokeWidth=2;" vertex="1" parent="132">
                    <mxGeometry x="32" width="30" height="19" as="geometry">
                        <mxRectangle width="30" height="19" as="alternateBounds"/>
                    </mxGeometry>
                </mxCell>
                <mxCell id="135" value="" style="shape=partialRectangle;html=1;whiteSpace=wrap;connectable=0;fillColor=none;top=0;left=0;bottom=0;right=0;overflow=hidden;pointerEvents=1;fontSize=12;strokeWidth=2;" vertex="1" parent="132">
                    <mxGeometry x="62" width="32" height="19" as="geometry">
                        <mxRectangle width="32" height="19" as="alternateBounds"/>
                    </mxGeometry>
                </mxCell>
                <mxCell id="136" value="" style="shape=partialRectangle;html=1;whiteSpace=wrap;collapsible=0;dropTarget=0;pointerEvents=0;fillColor=none;top=0;left=0;bottom=0;right=0;points=[[0,0.5],[1,0.5]];portConstraint=eastwest;fontSize=12;strokeWidth=2;" vertex="1" parent="127">
                    <mxGeometry y="68" width="94" height="19" as="geometry"/>
                </mxCell>
                <mxCell id="137" value="" style="shape=partialRectangle;html=1;whiteSpace=wrap;connectable=0;fillColor=none;top=0;left=0;bottom=0;right=0;overflow=hidden;pointerEvents=1;fontSize=12;strokeWidth=2;" vertex="1" parent="136">
                    <mxGeometry width="32" height="19" as="geometry">
                        <mxRectangle width="32" height="19" as="alternateBounds"/>
                    </mxGeometry>
                </mxCell>
                <mxCell id="138" value="" style="shape=partialRectangle;html=1;whiteSpace=wrap;connectable=0;fillColor=none;top=0;left=0;bottom=0;right=0;overflow=hidden;pointerEvents=1;fontSize=12;strokeWidth=2;" vertex="1" parent="136">
                    <mxGeometry x="32" width="30" height="19" as="geometry">
                        <mxRectangle width="30" height="19" as="alternateBounds"/>
                    </mxGeometry>
                </mxCell>
                <mxCell id="139" value="" style="shape=partialRectangle;html=1;whiteSpace=wrap;connectable=0;fillColor=none;top=0;left=0;bottom=0;right=0;overflow=hidden;pointerEvents=1;fontSize=12;strokeWidth=2;" vertex="1" parent="136">
                    <mxGeometry x="62" width="32" height="19" as="geometry">
                        <mxRectangle width="32" height="19" as="alternateBounds"/>
                    </mxGeometry>
                </mxCell>
                <mxCell id="245" style="edgeStyle=elbowEdgeStyle;html=1;fontSize=14;fontColor=#000000;" edge="1" parent="1" source="140">
                    <mxGeometry relative="1" as="geometry">
                        <mxPoint x="490" y="691" as="targetPoint"/>
                    </mxGeometry>
                </mxCell>
                <mxCell id="140" value="Apartamentos" style="shape=table;startSize=30;container=1;collapsible=0;childLayout=tableLayout;fontStyle=1;align=center;pointerEvents=1;fontSize=12;strokeWidth=2;fillColor=default;gradientColor=none;strokeColor=#FF9933;" vertex="1" parent="1">
                    <mxGeometry x="442.5" y="564" width="94" height="87" as="geometry"/>
                </mxCell>
                <mxCell id="141" value="" style="shape=partialRectangle;html=1;whiteSpace=wrap;collapsible=0;dropTarget=0;pointerEvents=0;fillColor=none;top=0;left=0;bottom=0;right=0;points=[[0,0.5],[1,0.5]];portConstraint=eastwest;fontSize=12;strokeWidth=2;" vertex="1" parent="140">
                    <mxGeometry y="30" width="94" height="19" as="geometry"/>
                </mxCell>
                <mxCell id="142" value="" style="shape=partialRectangle;html=1;whiteSpace=wrap;connectable=0;fillColor=none;top=0;left=0;bottom=0;right=0;overflow=hidden;pointerEvents=1;fontSize=12;strokeWidth=2;" vertex="1" parent="141">
                    <mxGeometry width="32" height="19" as="geometry">
                        <mxRectangle width="32" height="19" as="alternateBounds"/>
                    </mxGeometry>
                </mxCell>
                <mxCell id="143" value="" style="shape=partialRectangle;html=1;whiteSpace=wrap;connectable=0;fillColor=none;top=0;left=0;bottom=0;right=0;overflow=hidden;pointerEvents=1;fontSize=12;strokeWidth=2;" vertex="1" parent="141">
                    <mxGeometry x="32" width="30" height="19" as="geometry">
                        <mxRectangle width="30" height="19" as="alternateBounds"/>
                    </mxGeometry>
                </mxCell>
                <mxCell id="144" value="" style="shape=partialRectangle;html=1;whiteSpace=wrap;connectable=0;fillColor=none;top=0;left=0;bottom=0;right=0;overflow=hidden;pointerEvents=1;fontSize=12;strokeWidth=2;" vertex="1" parent="141">
                    <mxGeometry x="62" width="32" height="19" as="geometry">
                        <mxRectangle width="32" height="19" as="alternateBounds"/>
                    </mxGeometry>
                </mxCell>
                <mxCell id="145" value="" style="shape=partialRectangle;html=1;whiteSpace=wrap;collapsible=0;dropTarget=0;pointerEvents=0;fillColor=none;top=0;left=0;bottom=0;right=0;points=[[0,0.5],[1,0.5]];portConstraint=eastwest;fontSize=12;strokeWidth=2;" vertex="1" parent="140">
                    <mxGeometry y="49" width="94" height="19" as="geometry"/>
                </mxCell>
                <mxCell id="146" value="" style="shape=partialRectangle;html=1;whiteSpace=wrap;connectable=0;fillColor=none;top=0;left=0;bottom=0;right=0;overflow=hidden;pointerEvents=1;fontSize=12;strokeWidth=2;" vertex="1" parent="145">
                    <mxGeometry width="32" height="19" as="geometry">
                        <mxRectangle width="32" height="19" as="alternateBounds"/>
                    </mxGeometry>
                </mxCell>
                <mxCell id="147" value="" style="shape=partialRectangle;html=1;whiteSpace=wrap;connectable=0;fillColor=none;top=0;left=0;bottom=0;right=0;overflow=hidden;pointerEvents=1;fontSize=12;strokeWidth=2;" vertex="1" parent="145">
                    <mxGeometry x="32" width="30" height="19" as="geometry">
                        <mxRectangle width="30" height="19" as="alternateBounds"/>
                    </mxGeometry>
                </mxCell>
                <mxCell id="148" value="" style="shape=partialRectangle;html=1;whiteSpace=wrap;connectable=0;fillColor=none;top=0;left=0;bottom=0;right=0;overflow=hidden;pointerEvents=1;fontSize=12;strokeWidth=2;" vertex="1" parent="145">
                    <mxGeometry x="62" width="32" height="19" as="geometry">
                        <mxRectangle width="32" height="19" as="alternateBounds"/>
                    </mxGeometry>
                </mxCell>
                <mxCell id="149" value="" style="shape=partialRectangle;html=1;whiteSpace=wrap;collapsible=0;dropTarget=0;pointerEvents=0;fillColor=none;top=0;left=0;bottom=0;right=0;points=[[0,0.5],[1,0.5]];portConstraint=eastwest;fontSize=12;strokeWidth=2;" vertex="1" parent="140">
                    <mxGeometry y="68" width="94" height="19" as="geometry"/>
                </mxCell>
                <mxCell id="150" value="" style="shape=partialRectangle;html=1;whiteSpace=wrap;connectable=0;fillColor=none;top=0;left=0;bottom=0;right=0;overflow=hidden;pointerEvents=1;fontSize=12;strokeWidth=2;" vertex="1" parent="149">
                    <mxGeometry width="32" height="19" as="geometry">
                        <mxRectangle width="32" height="19" as="alternateBounds"/>
                    </mxGeometry>
                </mxCell>
                <mxCell id="151" value="" style="shape=partialRectangle;html=1;whiteSpace=wrap;connectable=0;fillColor=none;top=0;left=0;bottom=0;right=0;overflow=hidden;pointerEvents=1;fontSize=12;strokeWidth=2;" vertex="1" parent="149">
                    <mxGeometry x="32" width="30" height="19" as="geometry">
                        <mxRectangle width="30" height="19" as="alternateBounds"/>
                    </mxGeometry>
                </mxCell>
                <mxCell id="152" value="" style="shape=partialRectangle;html=1;whiteSpace=wrap;connectable=0;fillColor=none;top=0;left=0;bottom=0;right=0;overflow=hidden;pointerEvents=1;fontSize=12;strokeWidth=2;" vertex="1" parent="149">
                    <mxGeometry x="62" width="32" height="19" as="geometry">
                        <mxRectangle width="32" height="19" as="alternateBounds"/>
                    </mxGeometry>
                </mxCell>
                <mxCell id="246" style="edgeStyle=elbowEdgeStyle;html=1;fontSize=14;fontColor=#000000;" edge="1" parent="1" source="153">
                    <mxGeometry relative="1" as="geometry">
                        <mxPoint x="614" y="691" as="targetPoint"/>
                        <Array as="points">
                            <mxPoint x="614" y="690"/>
                        </Array>
                    </mxGeometry>
                </mxCell>
                <mxCell id="153" value="Apartamentos" style="shape=table;startSize=30;container=1;collapsible=0;childLayout=tableLayout;fontStyle=1;align=center;pointerEvents=1;fontSize=12;strokeWidth=2;fillColor=default;gradientColor=none;strokeColor=#FF9933;" vertex="1" parent="1">
                    <mxGeometry x="566.5" y="564" width="94" height="87" as="geometry"/>
                </mxCell>
                <mxCell id="154" value="" style="shape=partialRectangle;html=1;whiteSpace=wrap;collapsible=0;dropTarget=0;pointerEvents=0;fillColor=none;top=0;left=0;bottom=0;right=0;points=[[0,0.5],[1,0.5]];portConstraint=eastwest;fontSize=12;strokeWidth=2;" vertex="1" parent="153">
                    <mxGeometry y="30" width="94" height="19" as="geometry"/>
                </mxCell>
                <mxCell id="155" value="" style="shape=partialRectangle;html=1;whiteSpace=wrap;connectable=0;fillColor=none;top=0;left=0;bottom=0;right=0;overflow=hidden;pointerEvents=1;fontSize=12;strokeWidth=2;" vertex="1" parent="154">
                    <mxGeometry width="32" height="19" as="geometry">
                        <mxRectangle width="32" height="19" as="alternateBounds"/>
                    </mxGeometry>
                </mxCell>
                <mxCell id="156" value="" style="shape=partialRectangle;html=1;whiteSpace=wrap;connectable=0;fillColor=none;top=0;left=0;bottom=0;right=0;overflow=hidden;pointerEvents=1;fontSize=12;strokeWidth=2;" vertex="1" parent="154">
                    <mxGeometry x="32" width="30" height="19" as="geometry">
                        <mxRectangle width="30" height="19" as="alternateBounds"/>
                    </mxGeometry>
                </mxCell>
                <mxCell id="157" value="" style="shape=partialRectangle;html=1;whiteSpace=wrap;connectable=0;fillColor=none;top=0;left=0;bottom=0;right=0;overflow=hidden;pointerEvents=1;fontSize=12;strokeWidth=2;" vertex="1" parent="154">
                    <mxGeometry x="62" width="32" height="19" as="geometry">
                        <mxRectangle width="32" height="19" as="alternateBounds"/>
                    </mxGeometry>
                </mxCell>
                <mxCell id="158" value="" style="shape=partialRectangle;html=1;whiteSpace=wrap;collapsible=0;dropTarget=0;pointerEvents=0;fillColor=none;top=0;left=0;bottom=0;right=0;points=[[0,0.5],[1,0.5]];portConstraint=eastwest;fontSize=12;strokeWidth=2;" vertex="1" parent="153">
                    <mxGeometry y="49" width="94" height="19" as="geometry"/>
                </mxCell>
                <mxCell id="159" value="" style="shape=partialRectangle;html=1;whiteSpace=wrap;connectable=0;fillColor=none;top=0;left=0;bottom=0;right=0;overflow=hidden;pointerEvents=1;fontSize=12;strokeWidth=2;" vertex="1" parent="158">
                    <mxGeometry width="32" height="19" as="geometry">
                        <mxRectangle width="32" height="19" as="alternateBounds"/>
                    </mxGeometry>
                </mxCell>
                <mxCell id="160" value="" style="shape=partialRectangle;html=1;whiteSpace=wrap;connectable=0;fillColor=none;top=0;left=0;bottom=0;right=0;overflow=hidden;pointerEvents=1;fontSize=12;strokeWidth=2;" vertex="1" parent="158">
                    <mxGeometry x="32" width="30" height="19" as="geometry">
                        <mxRectangle width="30" height="19" as="alternateBounds"/>
                    </mxGeometry>
                </mxCell>
                <mxCell id="161" value="" style="shape=partialRectangle;html=1;whiteSpace=wrap;connectable=0;fillColor=none;top=0;left=0;bottom=0;right=0;overflow=hidden;pointerEvents=1;fontSize=12;strokeWidth=2;" vertex="1" parent="158">
                    <mxGeometry x="62" width="32" height="19" as="geometry">
                        <mxRectangle width="32" height="19" as="alternateBounds"/>
                    </mxGeometry>
                </mxCell>
                <mxCell id="162" value="" style="shape=partialRectangle;html=1;whiteSpace=wrap;collapsible=0;dropTarget=0;pointerEvents=0;fillColor=none;top=0;left=0;bottom=0;right=0;points=[[0,0.5],[1,0.5]];portConstraint=eastwest;fontSize=12;strokeWidth=2;" vertex="1" parent="153">
                    <mxGeometry y="68" width="94" height="19" as="geometry"/>
                </mxCell>
                <mxCell id="163" value="" style="shape=partialRectangle;html=1;whiteSpace=wrap;connectable=0;fillColor=none;top=0;left=0;bottom=0;right=0;overflow=hidden;pointerEvents=1;fontSize=12;strokeWidth=2;" vertex="1" parent="162">
                    <mxGeometry width="32" height="19" as="geometry">
                        <mxRectangle width="32" height="19" as="alternateBounds"/>
                    </mxGeometry>
                </mxCell>
                <mxCell id="164" value="" style="shape=partialRectangle;html=1;whiteSpace=wrap;connectable=0;fillColor=none;top=0;left=0;bottom=0;right=0;overflow=hidden;pointerEvents=1;fontSize=12;strokeWidth=2;" vertex="1" parent="162">
                    <mxGeometry x="32" width="30" height="19" as="geometry">
                        <mxRectangle width="30" height="19" as="alternateBounds"/>
                    </mxGeometry>
                </mxCell>
                <mxCell id="165" value="" style="shape=partialRectangle;html=1;whiteSpace=wrap;connectable=0;fillColor=none;top=0;left=0;bottom=0;right=0;overflow=hidden;pointerEvents=1;fontSize=12;strokeWidth=2;" vertex="1" parent="162">
                    <mxGeometry x="62" width="32" height="19" as="geometry">
                        <mxRectangle width="32" height="19" as="alternateBounds"/>
                    </mxGeometry>
                </mxCell>
                <mxCell id="270" value="" style="edgeStyle=elbowEdgeStyle;html=1;fontSize=14;fontColor=#000000;" edge="1" parent="1" source="170" target="255">
                    <mxGeometry relative="1" as="geometry"/>
                </mxCell>
                <mxCell id="170" value="" style="shape=actor;whiteSpace=wrap;html=1;fontSize=12;strokeWidth=2;fillColor=#eeeeee;strokeColor=#36393d;" vertex="1" parent="1">
                    <mxGeometry x="398" y="14" width="32" height="54" as="geometry"/>
                </mxCell>
                <mxCell id="178" value="Check-List&lt;br&gt;externo" style="ellipse;whiteSpace=wrap;html=1;align=center;newEdgeStyle={&quot;edgeStyle&quot;:&quot;entityRelationEdgeStyle&quot;,&quot;startArrow&quot;:&quot;none&quot;,&quot;endArrow&quot;:&quot;none&quot;,&quot;segment&quot;:10,&quot;curved&quot;:1};treeFolding=1;treeMoving=1;fontSize=12;strokeWidth=2;fillColor=#60a917;fontColor=#ffffff;strokeColor=#FFFFFF;" vertex="1" parent="1">
                    <mxGeometry x="32" y="210" width="100" height="40" as="geometry"/>
                </mxCell>
                <mxCell id="179" value="Boleto" style="ellipse;whiteSpace=wrap;html=1;align=center;newEdgeStyle={&quot;edgeStyle&quot;:&quot;entityRelationEdgeStyle&quot;,&quot;startArrow&quot;:&quot;none&quot;,&quot;endArrow&quot;:&quot;none&quot;,&quot;segment&quot;:10,&quot;curved&quot;:1};treeFolding=1;treeMoving=1;fontSize=12;strokeWidth=2;fillColor=#0050ef;fontColor=#ffffff;strokeColor=#FFFFFF;" vertex="1" collapsed="1" parent="1">
                    <mxGeometry x="32" y="330" width="100" height="40" as="geometry"/>
                </mxCell>
                <mxCell id="182" value="Check-List&lt;br&gt;externo" style="ellipse;whiteSpace=wrap;html=1;align=center;newEdgeStyle={&quot;edgeStyle&quot;:&quot;entityRelationEdgeStyle&quot;,&quot;startArrow&quot;:&quot;none&quot;,&quot;endArrow&quot;:&quot;none&quot;,&quot;segment&quot;:10,&quot;curved&quot;:1};treeFolding=1;treeMoving=1;fontSize=12;strokeWidth=2;fillColor=#60a917;fontColor=#ffffff;strokeColor=#FFFFFF;" vertex="1" parent="1">
                    <mxGeometry x="697" y="211" width="100" height="40" as="geometry"/>
                </mxCell>
                <mxCell id="183" value="Boleto" style="ellipse;whiteSpace=wrap;html=1;align=center;newEdgeStyle={&quot;edgeStyle&quot;:&quot;entityRelationEdgeStyle&quot;,&quot;startArrow&quot;:&quot;none&quot;,&quot;endArrow&quot;:&quot;none&quot;,&quot;segment&quot;:10,&quot;curved&quot;:1};treeFolding=1;treeMoving=1;fontSize=12;strokeWidth=2;fillColor=#0050ef;fontColor=#ffffff;strokeColor=#FFFFFF;" vertex="1" collapsed="1" parent="1">
                    <mxGeometry x="697" y="331" width="100" height="40" as="geometry"/>
                </mxCell>
                <mxCell id="187" value="Check-List&lt;br&gt;interno" style="ellipse;whiteSpace=wrap;html=1;align=center;newEdgeStyle={&quot;edgeStyle&quot;:&quot;entityRelationEdgeStyle&quot;,&quot;startArrow&quot;:&quot;none&quot;,&quot;endArrow&quot;:&quot;none&quot;,&quot;segment&quot;:10,&quot;curved&quot;:1};treeFolding=1;treeMoving=1;fontSize=12;strokeWidth=2;fillColor=#60a917;fontColor=#ffffff;strokeColor=#FFFFFF;" vertex="1" parent="1">
                    <mxGeometry x="242.5" y="706.64" width="100" height="40" as="geometry"/>
                </mxCell>
                <mxCell id="227" value="" style="whiteSpace=wrap;html=1;aspect=fixed;fontSize=15;strokeColor=#FFFFFF;strokeWidth=2;fillColor=#a20025;fontColor=#ffffff;" vertex="1" parent="1">
                    <mxGeometry x="356.75" y="703.02" width="47.25" height="47.25" as="geometry"/>
                </mxCell>
                <mxCell id="230" value="Fotos" style="text;html=1;resizable=0;autosize=1;align=center;verticalAlign=middle;points=[];rounded=0;fontSize=14;fontColor=#ffffff;fillColor=none;strokeColor=none;" vertex="1" parent="1">
                    <mxGeometry x="357.87" y="716.15" width="45" height="21" as="geometry"/>
                </mxCell>
                <mxCell id="232" value="Check-List&lt;br&gt;interno" style="ellipse;whiteSpace=wrap;html=1;align=center;newEdgeStyle={&quot;edgeStyle&quot;:&quot;entityRelationEdgeStyle&quot;,&quot;startArrow&quot;:&quot;none&quot;,&quot;endArrow&quot;:&quot;none&quot;,&quot;segment&quot;:10,&quot;curved&quot;:1};treeFolding=1;treeMoving=1;fontSize=12;strokeWidth=2;fillColor=#60a917;fontColor=#ffffff;strokeColor=#FFFFFF;" vertex="1" parent="1">
                    <mxGeometry x="62" y="706.63" width="100" height="40" as="geometry"/>
                </mxCell>
                <mxCell id="233" value="" style="whiteSpace=wrap;html=1;aspect=fixed;fontSize=15;strokeColor=#FFFFFF;strokeWidth=2;fillColor=#a20025;fontColor=#ffffff;" vertex="1" parent="1">
                    <mxGeometry x="176.25" y="703.01" width="47.25" height="47.25" as="geometry"/>
                </mxCell>
                <mxCell id="234" value="Fotos" style="text;html=1;resizable=0;autosize=1;align=center;verticalAlign=middle;points=[];rounded=0;fontSize=14;fontColor=#ffffff;fillColor=none;strokeColor=none;" vertex="1" parent="1">
                    <mxGeometry x="177.37" y="716.14" width="45" height="21" as="geometry"/>
                </mxCell>
                <mxCell id="235" value="Check-List&lt;br&gt;interno" style="ellipse;whiteSpace=wrap;html=1;align=center;newEdgeStyle={&quot;edgeStyle&quot;:&quot;entityRelationEdgeStyle&quot;,&quot;startArrow&quot;:&quot;none&quot;,&quot;endArrow&quot;:&quot;none&quot;,&quot;segment&quot;:10,&quot;curved&quot;:1};treeFolding=1;treeMoving=1;fontSize=12;strokeWidth=2;fillColor=#60a917;fontColor=#ffffff;strokeColor=#FFFFFF;" vertex="1" parent="1">
                    <mxGeometry x="603" y="706.63" width="100" height="40" as="geometry"/>
                </mxCell>
                <mxCell id="236" value="" style="whiteSpace=wrap;html=1;aspect=fixed;fontSize=15;strokeColor=#FFFFFF;strokeWidth=2;fillColor=#a20025;fontColor=#ffffff;" vertex="1" parent="1">
                    <mxGeometry x="717.25" y="703.01" width="47.25" height="47.25" as="geometry"/>
                </mxCell>
                <mxCell id="237" value="Fotos" style="text;html=1;resizable=0;autosize=1;align=center;verticalAlign=middle;points=[];rounded=0;fontSize=14;fontColor=#ffffff;fillColor=none;strokeColor=none;" vertex="1" parent="1">
                    <mxGeometry x="718.37" y="716.14" width="45" height="21" as="geometry"/>
                </mxCell>
                <mxCell id="238" value="Check-List&lt;br&gt;interno" style="ellipse;whiteSpace=wrap;html=1;align=center;newEdgeStyle={&quot;edgeStyle&quot;:&quot;entityRelationEdgeStyle&quot;,&quot;startArrow&quot;:&quot;none&quot;,&quot;endArrow&quot;:&quot;none&quot;,&quot;segment&quot;:10,&quot;curved&quot;:1};treeFolding=1;treeMoving=1;fontSize=12;strokeWidth=2;fillColor=#60a917;fontColor=#ffffff;strokeColor=#FFFFFF;" vertex="1" parent="1">
                    <mxGeometry x="422.5" y="706.62" width="100" height="40" as="geometry"/>
                </mxCell>
                <mxCell id="239" value="" style="whiteSpace=wrap;html=1;aspect=fixed;fontSize=15;strokeColor=#FFFFFF;strokeWidth=2;fillColor=#a20025;fontColor=#ffffff;" vertex="1" parent="1">
                    <mxGeometry x="536.75" y="703" width="47.25" height="47.25" as="geometry"/>
                </mxCell>
                <mxCell id="240" value="Fotos" style="text;html=1;resizable=0;autosize=1;align=center;verticalAlign=middle;points=[];rounded=0;fontSize=14;fontColor=#ffffff;fillColor=none;strokeColor=none;" vertex="1" parent="1">
                    <mxGeometry x="537.87" y="716.13" width="45" height="21" as="geometry"/>
                </mxCell>
                <mxCell id="241" value="" style="endArrow=none;html=1;fontSize=14;fontColor=#000000;" edge="1" parent="1">
                    <mxGeometry width="50" height="50" relative="1" as="geometry">
                        <mxPoint x="90" y="691" as="sourcePoint"/>
                        <mxPoint x="737" y="691" as="targetPoint"/>
                        <Array as="points">
                            <mxPoint x="397" y="691"/>
                        </Array>
                    </mxGeometry>
                </mxCell>
                <mxCell id="248" value="ACESSO" style="html=1;shadow=0;dashed=0;shape=mxgraph.bootstrap.rrect;rSize=5;strokeColor=none;strokeWidth=1;fillColor=#33A64C;fontColor=#FFFFFF;whiteSpace=wrap;align=center;verticalAlign=middle;spacingLeft=0;fontStyle=0;fontSize=16;spacing=5;" vertex="1" parent="1">
                    <mxGeometry x="240" y="96" width="100" height="34" as="geometry"/>
                </mxCell>
                <mxCell id="268" value="" style="edgeStyle=elbowEdgeStyle;html=1;fontSize=14;fontColor=#000000;" edge="1" parent="1" source="254" target="256">
                    <mxGeometry relative="1" as="geometry"/>
                </mxCell>
                <mxCell id="254" value="ESQUECI SENHA" style="html=1;shadow=0;dashed=0;shape=mxgraph.bootstrap.rrect;rSize=5;strokeColor=none;strokeWidth=1;fillColor=#DB2843;fontColor=#FFFFFF;whiteSpace=wrap;align=center;verticalAlign=middle;spacingLeft=0;fontStyle=0;fontSize=16;spacing=5;" vertex="1" parent="1">
                    <mxGeometry x="37" y="25.5" width="155" height="31" as="geometry"/>
                </mxCell>
                <mxCell id="264" value="" style="edgeStyle=elbowEdgeStyle;html=1;fontSize=14;fontColor=#000000;" edge="1" parent="1" source="255" target="248">
                    <mxGeometry relative="1" as="geometry"/>
                </mxCell>
                <mxCell id="267" value="" style="edgeStyle=elbowEdgeStyle;html=1;fontSize=14;fontColor=#000000;" edge="1" parent="1" source="255" target="254">
                    <mxGeometry relative="1" as="geometry"/>
                </mxCell>
                <mxCell id="255" value="LOGIN" style="html=1;shadow=0;dashed=0;shape=mxgraph.bootstrap.rrect;rSize=5;strokeColor=none;strokeWidth=1;fillColor=#1CA5B8;fontColor=#FFFFFF;whiteSpace=wrap;align=center;verticalAlign=middle;spacingLeft=0;fontStyle=0;fontSize=16;spacing=5;" vertex="1" parent="1">
                    <mxGeometry x="240" y="25" width="101" height="32" as="geometry"/>
                </mxCell>
                <mxCell id="269" value="" style="edgeStyle=elbowEdgeStyle;html=1;fontSize=14;fontColor=#000000;" edge="1" parent="1" source="256" target="248">
                    <mxGeometry relative="1" as="geometry"/>
                </mxCell>
                <mxCell id="256" value="REDEFINIR SENHA" style="html=1;shadow=0;dashed=0;shape=mxgraph.bootstrap.rrect;rSize=5;strokeColor=none;strokeWidth=1;fillColor=#FFBC26;fontColor=#FFFFFF;whiteSpace=wrap;align=center;verticalAlign=middle;spacingLeft=0;fontStyle=0;fontSize=16;spacing=5;" vertex="1" parent="1">
                    <mxGeometry x="37" y="97.5" width="154" height="31" as="geometry"/>
                </mxCell>
            </root>
        </mxGraphModel>
    </diagram>
</mxfile>